#!OML:ASF F:\VICON\USERDATA\INSTALL\Justin_Nancy\Justin_Nancy.ASF
:FULLY-SPECIFIED
:DEGREES
268
root -7.94016 17.5772 2.94736 2.45562 27.7608 -1.5737
lowerback 5.38648 1.14762 0.967051
upperback 0.236707 1.65008 1.9089
thorax -2.80524 0.823569 1.29473
lowerneck -16.016 -3.03251 -8.98807
upperneck 25.4687 -2.67878 3.74906
head 11.0809 -1.58356 2.51274
rclavicle -3.26007e-014 1.74931e-014
rhumerus -33.6707 -13.0349 -74.0881
rradius 37.2256
rwrist 2.29389
rhand -13.7449 14.0825
rfingers 7.12502
rthumb 12.3751 -15.5312
lclavicle -3.26007e-014 1.74931e-014
lhumerus -38.505 22.4908 76.3165
lradius 19.8699
lwrist -18.9513
lhand -13.7413 21.1403
lfingers 7.12502
lthumb 12.3785 50.7539
rfemur 3.859 0.342939 21.4662
rtibia 35.8453
rfoot -2.74218 -2.98988
rtoes -16.1019
lfemur -24.6405 1.11125 -23.1047
ltibia 22.6846
lfoot -4.15734 3.41414
ltoes -0.283606
269
root -7.84347 17.5691 3.07034 2.46526 28.2496 -1.23999
lowerback 5.41045 1.0222 0.760527
upperback 0.302829 1.46847 1.87927
thorax -2.75186 0.735548 1.3943
lowerneck -16.1762 -3.06693 -9.04143
upperneck 25.3691 -2.66589 3.63722
head 11.0746 -1.59429 2.4799
rclavicle 2.84262e-014 4.77083e-015
rhumerus -33.7769 -13.295 -74.0408
rradius 37.2243
rwrist 2.28132
rhand -13.1727 13.3173
rfingers 7.12502
rthumb 12.9267 -16.2623
lclavicle 2.84262e-014 4.77083e-015
lhumerus -38.4922 24.063 75.5077
lradius 19.3657
lwrist -20.4823
lhand -13.666 21.114
lfingers 7.12502
lthumb 12.4511 50.7231
rfemur 2.72632 -0.351991 20.843
rtibia 38.5933
rfoot -0.263431 -2.10005
rtoes -15.9643
lfemur -24.1159 1.16973 -23.6182
ltibia 22.9165
lfoot -4.21287 2.56904
ltoes -0.0131744
270
root -7.75289 17.5633 3.18784 2.36803 28.6303 -1.24116
lowerback 5.62756 0.992463 0.938231
upperback 0.192936 1.44477 1.81896
thorax -2.98049 0.720695 1.22958
lowerneck -16.209 -3.13487 -8.84491
upperneck 25.3741 -2.75106 3.40919
head 11.0831 -1.64155 2.35044
rclavicle -2.39039e-014 8.34896e-015
rhumerus -34.3839 -13.7256 -73.9845
rradius 37.4243
rwrist 2.2029
rhand -13.2029 13.1902
rfingers 7.12502
rthumb 12.8976 -16.3913
lclavicle -2.39039e-014 8.34896e-015
lhumerus -38.544 23.6175 75.6063
lradius 19.5574
lwrist -20.1005
lhand -13.4258 20.7545
lfingers 7.12502
lthumb 12.6828 50.3494
rfemur 1.37616 -0.873485 20.5629
rtibia 41.2845
rfoot 2.27381 -1.27759
rtoes -16.4437
lfemur -23.7674 1.36563 -23.8096
ltibia 23.2086
lfoot -3.94472 1.96006
ltoes -1.14065
271
root -7.65991 17.5703 3.30387 2.32016 28.8796 -1.20088
lowerback 5.64906 0.956488 0.962432
upperback 0.157099 1.39868 1.79193
thorax -3.02753 0.697107 1.19124
lowerneck -16.0445 -3.15397 -8.70305
upperneck 25.1729 -2.81742 3.34839
head 10.9761 -1.66379 2.2932
rclavicle 7.67309e-014 -9.54166e-015
rhumerus -34.7305 -14.5499 -73.8009
rradius 37.5134
rwrist 2.56212
rhand -13.1784 13.5685
rfingers 7.12502
rthumb 12.9212 -16.0114
lclavicle 7.67309e-014 -9.54166e-015
lhumerus -38.5168 22.5632 76.1588
lradius 20.0625
lwrist -19.0862
lhand -13.2416 21.2034
lfingers 7.12502
lthumb 12.8603 50.7872
rfemur -0.140771 -1.10763 20.2615
rtibia 44.0021
rfoot 4.57449 -0.691278
rtoes -12.5233
lfemur -23.2995 1.58947 -24.0313
ltibia 23.3276
lfoot -3.80035 1.24254
ltoes 0.775228
272
root -7.56532 17.5843 3.42547 2.17479 29.1748 -1.01304
lowerback 5.67704 0.878558 0.773746
upperback 0.290066 1.28155 1.81696
thorax -2.90902 0.641762 1.33307
lowerneck -16.061 -3.16463 -8.92193
upperneck 24.9856 -2.80617 3.48128
head 10.9148 -1.66098 2.37758
rclavicle 4.75592e-014 6.36111e-015
rhumerus -34.7685 -15.0868 -73.6754
rradius 37.6144
rwrist 2.71866
rhand -12.9833 13.5174
rfingers 7.12502
rthumb 13.1093 -16.0505
lclavicle 4.75592e-014 6.36111e-015
lhumerus -38.2518 21.5329 76.8777
lradius 20.4598
lwrist -18.0157
lhand -13.1552 21.7384
lfingers 7.12502
lthumb 12.9436 51.3169
rfemur -1.41664 -1.37098 19.8716
rtibia 46.6721
rfoot 6.98245 0.360973
rtoes -9.33635
lfemur -22.3911 1.7652 -24.3588
ltibia 23.1538
lfoot -3.99913 0.372319
ltoes 4.68312
273
root -7.47838 17.601 3.55506 2.23716 29.4239 -0.378011
lowerback 5.82848 0.891584 0.13089
upperback 0.314834 1.25443 1.69626
thorax -2.97883 0.635763 1.5698
lowerneck -16.0116 -3.16082 -8.95691
upperneck 24.8601 -2.79907 3.49566
head 10.8588 -1.65776 2.38842
rclavicle 4.96465e-014 9.54166e-015
rhumerus -35.0116 -15.2832 -73.6183
rradius 37.6302
rwrist 2.32968
rhand -13.0928 13.5111
rfingers 7.12502
rthumb 13.0038 -16.0636
lclavicle 4.96465e-014 9.54166e-015
lhumerus -38.1768 20.3671 77.5156
lradius 21.0193
lwrist -17.0808
lhand -13.0695 22.0439
lfingers 7.12502
lthumb 13.0262 51.6172
rfemur -2.72636 -1.43502 19.1516
rtibia 49.3021
rfoot 9.61014 1.06873
rtoes -6.54102
lfemur -21.3081 1.90086 -25.075
ltibia 22.6987
lfoot -4.02444 -0.230302
ltoes 6.16921
274
root -7.39356 17.6178 3.67954 2.31185 29.6313 0.116591
lowerback 6.01496 0.849996 -0.381429
upperback 0.271518 1.16227 1.5797
thorax -3.13331 0.596632 1.7425
lowerneck -15.9102 -3.04834 -8.73854
upperneck 24.7945 -2.69071 3.42334
head 10.8009 -1.59608 2.34085
rclavicle 1.64991e-014 -1.86858e-014
rhumerus -35.3559 -15.3445 -73.7655
rradius 37.6375
rwrist 1.9964
rhand -13.1456 13.4824
rfingers 7.12502
rthumb 12.9529 -16.0955
lclavicle 1.64991e-014 -1.86858e-014
lhumerus -38.2089 19.4621 77.907
lradius 21.5573
lwrist -16.3003
lhand -13.1105 22.4111
lfingers 7.12502
lthumb 12.9867 51.9869
rfemur -4.15598 -1.38332 18.624
rtibia 51.8357
rfoot 12.1402 1.19041
rtoes -2.09955
lfemur -20.3404 1.92672 -25.6624
ltibia 22.1618
lfoot -3.75054 -0.334751
ltoes 5.42433
275
root -7.30155 17.6356 3.7996 2.45842 29.8825 0.627232
lowerback 6.07088 0.774914 -0.754508
upperback 0.287818 1.03158 1.44281
thorax -3.1474 0.535783 1.82182
lowerneck -15.846 -2.977 -8.58168
upperneck 24.6856 -2.63065 3.39007
head 10.7399 -1.55691 2.31002
rclavicle 2.04748e-014 -9.93923e-015
rhumerus -35.6133 -15.6322 -73.8647
rradius 37.5787
rwrist 2.15363
rhand -12.893 13.3058
rfingers 7.12502
rthumb 13.1963 -16.2565
lclavicle 2.04748e-014 -9.93923e-015
lhumerus -37.9464 19.1331 78.018
lradius 21.6099
lwrist -16.1755
lhand -13.3317 22.3614
lfingers 7.12502
lthumb 12.7735 51.9507
rfemur -5.6588 -1.52333 18.0146
rtibia 54.2839
rfoot 14.0674 1.3594
rtoes 1.20675
lfemur -19.3736 1.83507 -26.2582
ltibia 21.5974
lfoot -3.60425 -0.301715
ltoes 7.02817
276
root -7.21275 17.6429 3.91681 2.64685 30.0764 1.13959
lowerback 6.04933 0.695559 -1.1953
upperback 0.35604 0.892293 1.35937
thorax -3.06501 0.470982 1.9964
lowerneck -15.7399 -2.87924 -8.422
upperneck 24.4606 -2.51039 3.25601
head 10.6233 -1.50092 2.24938
rclavicle -7.38485e-014 -8.34896e-015
rhumerus -35.5227 -15.5213 -74.0549
rradius 37.3149
rwrist 2.25145
rhand -13.1615 13.537
rfingers 7.12502
rthumb 12.9375 -16.0419
lclavicle -7.38485e-014 -8.34896e-015
lhumerus -37.5512 18.5474 78.3873
lradius 21.8194
lwrist -15.7409
lhand -13.406 21.7095
lfingers 7.12502
lthumb 12.7018 51.3032
rfemur -7.17135 -1.62374 17.4049
rtibia 56.6336
rfoot 15.0856 1.01544
rtoes 3.67581
lfemur -18.5085 1.98461 -26.861
ltibia 21.1877
lfoot -3.63428 -0.620484
ltoes 8.69658
277
root -7.13103 17.6476 4.03067 2.77871 30.4216 1.48626
lowerback 6.06775 0.558224 -1.5355
upperback 0.405857 0.685669 1.35459
thorax -3.01876 0.371924 2.20101
lowerneck -15.7249 -2.82121 -8.54623
upperneck 24.2667 -2.41485 3.32494
head 10.5455 -1.45824 2.30608
rclavicle -2.78299e-015 -5.1684e-015
rhumerus -35.2384 -15.1806 -74.3045
rradius 36.9361
rwrist 1.95916
rhand -13.532 13.7599
rfingers 7.12502
rthumb 12.5804 -15.8414
lclavicle -2.78299e-015 -5.1684e-015
lhumerus -37.179 17.795 78.9622
lradius 22.2098
lwrist -15.0913
lhand -13.5171 21.3578
lfingers 7.12502
lthumb 12.5947 50.9581
rfemur -8.67892 -1.94636 17.0326
rtibia 58.821
rfoot 14.8816 0.313722
rtoes 4.19659
lfemur -17.8531 2.07668 -27.3192
ltibia 21.0192
lfoot -3.71111 -0.949868
ltoes 9.18704
